<svg width="200" height="75" viewBox="0 0 200 75" fill="none" xmlns="http://www.w3.org/2000/svg">
<g clip-path="url(#clip0_587_12805)">
<path d="M73.0094 14.41C67.7194 5.25 58.6394 0 48.0494 0C37.4594 0 28.3794 5.25 23.0894 14.41L23.0394 14.5C35.4494 15.53 45.2094 25.92 45.2094 38.59C45.2094 51.95 34.3794 62.77 21.0294 62.77H15.3594C20.7894 70.14 29.0094 74.29 38.4294 74.29H57.6794C68.2594 74.29 77.3494 69.05 82.6394 59.88C87.9294 50.72 87.9294 40.23 82.6394 31.06L73.0194 14.39L73.0094 14.41Z" fill="#FF511B"/>
<path d="M13.47 31.0802L23.04 14.5002C22.37 14.4402 21.7 14.4102 21.02 14.4102H0V62.7802H15.36C14.69 61.8702 14.06 60.9102 13.47 59.9002C8.18 50.7302 8.18 40.2502 13.47 31.0802Z" fill="#FF511B"/>
<path d="M103.991 14.4102H101.141V35.7902H103.991V14.4102Z" fill="white"/>
<path d="M117.101 33.4002C117.421 33.4002 117.821 33.3802 118.301 33.3302C118.781 33.2802 119.291 33.1602 119.831 32.9702C120.371 32.7802 120.901 32.5102 121.431 32.1502C121.961 31.7902 122.431 31.3002 122.851 30.6802C123.271 30.0602 123.611 29.2902 123.881 28.3602C124.151 27.4302 124.281 26.3102 124.281 24.9902C124.281 23.6702 124.161 22.5702 123.911 21.5602C123.661 20.5502 123.251 19.6902 122.681 18.9802C122.111 18.2702 121.381 17.7302 120.481 17.3602C119.581 16.9902 118.471 16.8102 117.151 16.8102H112.361V33.4002H117.091H117.101ZM116.861 14.4102C120.151 14.4102 122.691 15.2502 124.471 16.9302C126.251 18.6102 127.141 21.1602 127.141 24.6002C127.141 26.4002 126.941 27.9902 126.541 29.3802C126.141 30.7702 125.521 31.9402 124.681 32.8802C123.841 33.8302 122.771 34.5502 121.481 35.0502C120.181 35.5502 118.641 35.8002 116.871 35.8002H109.531V14.4102H116.871H116.861Z" fill="white"/>
<path d="M113.891 63.0128C112.651 63.5028 111.401 63.7428 110.151 63.7428C108.551 63.7428 107.131 63.4528 105.871 62.8628C104.611 62.2728 103.541 61.4828 102.661 60.4828C101.781 59.4828 101.111 58.3328 100.651 57.0428C100.191 55.7428 99.9609 54.3928 99.9609 53.0028C99.9609 51.4428 100.171 49.9628 100.601 48.5528C101.031 47.1428 101.671 45.9128 102.521 44.8528C103.371 43.7928 104.431 42.9528 105.701 42.3228C106.971 41.6928 108.451 41.3828 110.151 41.3828C111.311 41.3828 112.401 41.5228 113.431 41.7928C114.461 42.0628 115.381 42.4828 116.191 43.0628C117.001 43.6428 117.681 44.3728 118.231 45.2628C118.781 46.1528 119.151 47.2228 119.351 48.4828H116.501C116.361 47.6628 116.101 46.9628 115.721 46.3728C115.341 45.7828 114.871 45.3028 114.311 44.9228C113.751 44.5428 113.121 44.2628 112.411 44.0728C111.701 43.8828 110.951 43.7928 110.151 43.7928C108.851 43.7928 107.741 44.0528 106.811 44.5728C105.881 45.0928 105.121 45.7728 104.541 46.6228C103.951 47.4728 103.511 48.4428 103.241 49.5228C102.961 50.6128 102.821 51.7228 102.821 52.8628C102.821 54.0028 102.981 55.0528 103.301 56.0828C103.621 57.1128 104.091 58.0228 104.711 58.8128C105.331 59.6028 106.091 60.2328 107.001 60.7028C107.911 61.1728 108.961 61.4028 110.161 61.4028C111.281 61.4028 112.271 61.2228 113.121 60.8628C113.981 60.5028 114.701 60.0128 115.291 59.3828C115.881 58.7528 116.321 58.0128 116.621 57.1728C116.921 56.3228 117.051 55.4128 117.011 54.4328H110.181V52.0328H119.551V63.2928H117.751L117.001 60.6328C116.161 61.7528 115.121 62.5528 113.891 63.0428" fill="white"/>
<path d="M126.384 47.7778V51.0478H126.444C127.064 49.7878 127.824 48.8578 128.724 48.2578C129.624 47.6578 130.764 47.3778 132.134 47.4178V50.1178C131.114 50.1178 130.244 50.2578 129.534 50.5378C128.814 50.8178 128.234 51.2278 127.794 51.7678C127.354 52.3078 127.034 52.9578 126.834 53.7278C126.634 54.4978 126.534 55.3778 126.534 56.3778V63.2678H123.984V47.7878H126.384V47.7778Z" fill="white"/>
<path d="M136.492 58.0319C136.742 58.7619 137.082 59.3719 137.522 59.8619C137.962 60.3519 138.472 60.7219 139.062 60.9819C139.652 61.2419 140.272 61.3719 140.932 61.3719C141.592 61.3719 142.212 61.2419 142.802 60.9819C143.392 60.7219 143.902 60.3519 144.342 59.8619C144.782 59.3719 145.122 58.7619 145.372 58.0319C145.622 57.3019 145.752 56.4719 145.752 55.5319C145.752 54.5919 145.622 53.7619 145.372 53.0319C145.122 52.3019 144.782 51.6919 144.342 51.1919C143.902 50.6919 143.392 50.3119 142.802 50.0519C142.212 49.7919 141.592 49.6619 140.932 49.6619C140.272 49.6619 139.652 49.7919 139.062 50.0519C138.472 50.3119 137.952 50.6919 137.522 51.1919C137.082 51.6919 136.742 52.3019 136.492 53.0319C136.242 53.7619 136.112 54.5919 136.112 55.5319C136.112 56.4719 136.232 57.3019 136.492 58.0319ZM133.902 52.3419C134.222 51.3519 134.702 50.4919 135.342 49.7719C135.982 49.0419 136.772 48.4719 137.712 48.0519C138.652 47.6319 139.732 47.4219 140.942 47.4219C142.152 47.4219 143.262 47.6319 144.192 48.0519C145.122 48.4719 145.902 49.0419 146.542 49.7719C147.182 50.5019 147.662 51.3619 147.982 52.3419C148.302 53.3319 148.462 54.3919 148.462 55.5319C148.462 56.6719 148.302 57.7319 147.982 58.7119C147.662 59.6919 147.182 60.5419 146.542 61.2719C145.902 62.0019 145.122 62.5719 144.192 62.9819C143.262 63.3919 142.182 63.5919 140.942 63.5919C139.702 63.5919 138.642 63.3819 137.712 62.9819C136.772 62.5719 135.982 62.0019 135.342 61.2719C134.702 60.5419 134.222 59.6919 133.902 58.7119C133.582 57.7319 133.422 56.6719 133.422 55.5319C133.422 54.3919 133.582 53.3319 133.902 52.3419Z" fill="white"/>
<path d="M162.617 63.2591V60.8091H162.557C162.017 61.7691 161.328 62.4691 160.488 62.9191C159.648 63.3691 158.658 63.5891 157.518 63.5891C156.498 63.5891 155.647 63.4591 154.977 63.1891C154.297 62.9191 153.747 62.5391 153.327 62.0391C152.907 61.5391 152.617 60.9491 152.447 60.2591C152.277 59.5691 152.188 58.8091 152.188 57.9691V47.7891H154.738V58.2691C154.738 59.2291 155.017 59.9891 155.577 60.5491C156.137 61.1091 156.908 61.3891 157.878 61.3891C158.658 61.3891 159.327 61.2691 159.897 61.0291C160.467 60.7891 160.938 60.4491 161.318 60.0091C161.698 59.5691 161.977 59.0591 162.167 58.4691C162.357 57.8791 162.458 57.2391 162.458 56.5391V47.7991H164.997V63.2791H162.607L162.617 63.2591Z" fill="white"/>
<path d="M181.378 53.2684C181.188 52.5784 180.897 51.9684 180.507 51.4284C180.117 50.8884 179.617 50.4584 179.007 50.1384C178.397 49.8184 177.687 49.6584 176.867 49.6584C176.007 49.6584 175.277 49.8284 174.677 50.1684C174.077 50.5084 173.588 50.9484 173.208 51.4984C172.828 52.0484 172.557 52.6684 172.387 53.3684C172.217 54.0684 172.128 54.7784 172.128 55.4984C172.128 56.2584 172.217 56.9884 172.397 57.6984C172.577 58.4084 172.857 59.0284 173.247 59.5684C173.637 60.1084 174.137 60.5384 174.757 60.8684C175.377 61.1984 176.127 61.3584 177.007 61.3584C177.887 61.3584 178.618 61.1884 179.208 60.8484C179.798 60.5084 180.268 60.0584 180.628 59.4984C180.988 58.9384 181.248 58.2984 181.408 57.5784C181.568 56.8584 181.647 56.1184 181.647 55.3584C181.647 54.6384 181.557 53.9384 181.367 53.2484M172.217 47.7484V49.8484H172.277C172.697 48.9884 173.357 48.3684 174.257 47.9784C175.157 47.5884 176.147 47.3984 177.227 47.3984C178.427 47.3984 179.467 47.6184 180.357 48.0584C181.247 48.4984 181.987 49.0884 182.577 49.8384C183.167 50.5884 183.608 51.4484 183.908 52.4284C184.208 53.4084 184.357 54.4484 184.357 55.5384C184.357 56.6284 184.217 57.6784 183.927 58.6584C183.637 59.6384 183.197 60.4884 182.607 61.2184C182.017 61.9484 181.277 62.5184 180.387 62.9384C179.497 63.3584 178.467 63.5684 177.287 63.5684C176.907 63.5684 176.488 63.5284 176.018 63.4484C175.548 63.3684 175.088 63.2384 174.628 63.0584C174.168 62.8784 173.737 62.6384 173.327 62.3284C172.917 62.0184 172.578 61.6384 172.298 61.1784H172.238V69.1484H169.688V47.7684H172.238L172.217 47.7484Z" fill="white"/>
<path d="M132.161 18.8298V24.7998H131.351V18.8298H130.211V18.1498H131.351V17.5398C131.351 17.2598 131.371 16.9898 131.411 16.7498C131.451 16.5098 131.531 16.2998 131.661 16.1298C131.781 15.9598 131.951 15.8198 132.161 15.7298C132.371 15.6298 132.641 15.5898 132.961 15.5898C133.081 15.5898 133.191 15.5898 133.301 15.5998C133.401 15.5998 133.521 15.6198 133.651 15.6398V16.3398C133.541 16.3198 133.441 16.3098 133.341 16.2898C133.251 16.2798 133.151 16.2698 133.061 16.2698C132.841 16.2698 132.671 16.2998 132.541 16.3698C132.421 16.4398 132.331 16.5298 132.281 16.6498C132.231 16.7698 132.191 16.8998 132.181 17.0598C132.181 17.2098 132.171 17.3798 132.171 17.5598V18.1398H133.481V18.8198H132.171L132.161 18.8298Z" fill="white"/>
<path d="M134.258 24.8016H135.068V18.1516H134.258V24.8016ZM134.258 16.9016H135.068V15.6016H134.258V16.9016Z" fill="white"/>
<path d="M137.428 18.1509V19.3009H137.458C137.618 18.9009 137.888 18.5709 138.288 18.3309C138.678 18.0909 139.118 17.9609 139.588 17.9609C140.058 17.9609 140.438 18.0209 140.758 18.1409C141.068 18.2609 141.328 18.4309 141.518 18.6509C141.708 18.8709 141.838 19.1409 141.918 19.4609C141.998 19.7809 142.038 20.1309 142.038 20.5309V24.8109H141.228V20.6609C141.228 20.3809 141.198 20.1109 141.148 19.8709C141.098 19.6309 141.008 19.4109 140.878 19.2309C140.748 19.0509 140.578 18.9109 140.358 18.8109C140.138 18.7109 139.868 18.6609 139.538 18.6609C139.208 18.6609 138.918 18.7209 138.668 18.8309C138.418 18.9409 138.198 19.1109 138.028 19.3109C137.848 19.5109 137.718 19.7509 137.618 20.0309C137.518 20.3109 137.468 20.6109 137.458 20.9409V24.8209H136.648V18.1709H137.458L137.428 18.1509Z" fill="white"/>
<path d="M147.783 21.1575C147.733 21.2475 147.633 21.3175 147.483 21.3675C147.333 21.4175 147.203 21.4375 147.093 21.4575C146.753 21.5175 146.393 21.5675 146.033 21.6175C145.663 21.6675 145.333 21.7375 145.033 21.8275C144.733 21.9175 144.483 22.0575 144.293 22.2375C144.103 22.4175 144.003 22.6675 144.003 22.9975C144.003 23.2075 144.043 23.3875 144.123 23.5475C144.203 23.7075 144.313 23.8475 144.453 23.9575C144.593 24.0775 144.753 24.1575 144.933 24.2175C145.113 24.2775 145.293 24.3075 145.483 24.3075C145.793 24.3075 146.093 24.2575 146.373 24.1675C146.653 24.0675 146.903 23.9375 147.113 23.7575C147.323 23.5775 147.493 23.3575 147.613 23.0975C147.733 22.8375 147.803 22.5475 147.803 22.2175V21.1575H147.783ZM143.723 19.1675C143.863 18.8875 144.043 18.6475 144.283 18.4675C144.513 18.2875 144.793 18.1575 145.113 18.0675C145.433 17.9775 145.783 17.9375 146.173 17.9375C146.463 17.9375 146.753 17.9675 147.053 18.0175C147.343 18.0775 147.603 18.1775 147.843 18.3375C148.073 18.4875 148.263 18.7075 148.413 18.9875C148.563 19.2675 148.633 19.6275 148.633 20.0775V23.6075C148.633 23.9375 148.793 24.0975 149.113 24.0975C149.203 24.0975 149.293 24.0775 149.373 24.0475V24.7275C149.273 24.7475 149.193 24.7575 149.123 24.7675C149.053 24.7675 148.953 24.7775 148.843 24.7775C148.633 24.7775 148.473 24.7475 148.343 24.6975C148.223 24.6475 148.123 24.5575 148.053 24.4575C147.983 24.3575 147.943 24.2375 147.913 24.0875C147.893 23.9475 147.883 23.7875 147.883 23.6175H147.863C147.713 23.8275 147.563 24.0275 147.413 24.1875C147.263 24.3575 147.093 24.4975 146.913 24.6075C146.733 24.7175 146.523 24.8075 146.283 24.8675C146.043 24.9275 145.763 24.9575 145.443 24.9575C145.133 24.9575 144.843 24.9175 144.573 24.8475C144.303 24.7775 144.063 24.6575 143.863 24.4975C143.663 24.3375 143.503 24.1375 143.383 23.8875C143.263 23.6475 143.203 23.3475 143.203 23.0175C143.203 22.5575 143.303 22.1875 143.513 21.9275C143.723 21.6675 143.993 21.4675 144.333 21.3275C144.673 21.1875 145.053 21.0975 145.483 21.0375C145.903 20.9875 146.343 20.9275 146.783 20.8775C146.953 20.8575 147.103 20.8375 147.233 20.8075C147.363 20.7775 147.473 20.7375 147.553 20.6675C147.643 20.5975 147.703 20.5175 147.753 20.3975C147.803 20.2875 147.823 20.1375 147.823 19.9575C147.823 19.6875 147.783 19.4575 147.683 19.2775C147.593 19.0975 147.473 18.9575 147.313 18.8575C147.153 18.7575 146.973 18.6875 146.763 18.6475C146.553 18.6075 146.323 18.5875 146.083 18.5875C145.563 18.5875 145.143 18.7075 144.823 18.9575C144.493 19.1975 144.323 19.5975 144.303 20.1375H143.493C143.523 19.7475 143.603 19.4175 143.743 19.1275" fill="white"/>
<path d="M151.04 18.1509V19.3009H151.06C151.22 18.9009 151.49 18.5709 151.89 18.3309C152.29 18.0909 152.72 17.9609 153.19 17.9609C153.66 17.9609 154.04 18.0209 154.36 18.1409C154.67 18.2609 154.93 18.4309 155.12 18.6509C155.31 18.8709 155.44 19.1409 155.52 19.4609C155.6 19.7809 155.64 20.1309 155.64 20.5309V24.8109H154.83V20.6609C154.83 20.3809 154.8 20.1109 154.75 19.8709C154.7 19.6309 154.61 19.4109 154.48 19.2309C154.35 19.0509 154.18 18.9109 153.96 18.8109C153.74 18.7109 153.47 18.6609 153.14 18.6609C152.81 18.6609 152.52 18.7209 152.27 18.8309C152.02 18.9509 151.8 19.1109 151.63 19.3109C151.45 19.5109 151.32 19.7509 151.22 20.0309C151.12 20.3109 151.07 20.6109 151.06 20.9409V24.8209H150.25V18.1709H151.06L151.04 18.1509Z" fill="white"/>
<path d="M161.238 19.0592C160.938 18.7792 160.518 18.6292 159.978 18.6292C159.588 18.6292 159.248 18.7092 158.958 18.8792C158.668 19.0392 158.418 19.2592 158.228 19.5192C158.038 19.7892 157.888 20.0892 157.788 20.4292C157.688 20.7692 157.638 21.1092 157.638 21.4692C157.638 21.8292 157.688 22.1692 157.788 22.5092C157.888 22.8492 158.038 23.1492 158.228 23.4192C158.418 23.6892 158.658 23.8992 158.958 24.0592C159.248 24.2192 159.588 24.2992 159.978 24.2992C160.228 24.2992 160.458 24.2492 160.688 24.1592C160.908 24.0592 161.108 23.9292 161.278 23.7692C161.448 23.5992 161.588 23.3992 161.708 23.1692C161.818 22.9392 161.888 22.6792 161.918 22.4092H162.728C162.618 23.2192 162.318 23.8492 161.838 24.2992C161.358 24.7492 160.738 24.9792 159.978 24.9792C159.468 24.9792 159.018 24.8892 158.628 24.6992C158.238 24.5192 157.908 24.2592 157.648 23.9392C157.378 23.6192 157.178 23.2492 157.038 22.8292C156.898 22.3992 156.828 21.9492 156.828 21.4692C156.828 20.9892 156.898 20.5392 157.038 20.1092C157.178 19.6792 157.378 19.3092 157.648 18.9892C157.918 18.6692 158.248 18.4192 158.628 18.2292C159.018 18.0392 159.468 17.9492 159.978 17.9492C160.688 17.9492 161.298 18.1392 161.788 18.5192C162.278 18.8992 162.578 19.4692 162.668 20.2292H161.858C161.748 19.7292 161.538 19.3392 161.238 19.0592Z" fill="white"/>
<path d="M163.867 24.8016H164.677V18.1516H163.867V24.8016ZM163.867 16.9016H164.677V15.6016H163.867V16.9016Z" fill="white"/>
<path d="M170.468 21.1575C170.418 21.2475 170.318 21.3175 170.168 21.3675C170.018 21.4075 169.888 21.4375 169.778 21.4575C169.438 21.5175 169.078 21.5675 168.718 21.6175C168.348 21.6675 168.018 21.7375 167.718 21.8275C167.418 21.9175 167.168 22.0575 166.978 22.2375C166.788 22.4175 166.688 22.6675 166.688 22.9975C166.688 23.2075 166.728 23.3875 166.808 23.5475C166.888 23.7075 166.998 23.8475 167.138 23.9575C167.278 24.0775 167.438 24.1575 167.618 24.2175C167.798 24.2775 167.978 24.3075 168.168 24.3075C168.478 24.3075 168.778 24.2575 169.058 24.1675C169.338 24.0675 169.588 23.9375 169.798 23.7575C170.008 23.5775 170.178 23.3575 170.298 23.0975C170.418 22.8375 170.488 22.5475 170.488 22.2175V21.1575H170.468ZM166.408 19.1675C166.548 18.8875 166.728 18.6475 166.968 18.4675C167.198 18.2875 167.478 18.1575 167.798 18.0675C168.118 17.9775 168.468 17.9375 168.858 17.9375C169.148 17.9375 169.438 17.9675 169.738 18.0175C170.038 18.0675 170.288 18.1775 170.528 18.3375C170.758 18.4875 170.948 18.7075 171.098 18.9875C171.248 19.2675 171.318 19.6275 171.318 20.0775V23.6075C171.318 23.9375 171.478 24.0975 171.798 24.0975C171.888 24.0975 171.978 24.0775 172.058 24.0475V24.7275C171.958 24.7475 171.878 24.7575 171.808 24.7675C171.738 24.7675 171.638 24.7775 171.528 24.7775C171.318 24.7775 171.158 24.7475 171.028 24.6975C170.908 24.6475 170.808 24.5575 170.738 24.4575C170.668 24.3575 170.628 24.2375 170.598 24.0875C170.578 23.9475 170.568 23.7875 170.568 23.6175H170.548C170.398 23.8275 170.248 24.0275 170.098 24.1875C169.948 24.3575 169.778 24.4975 169.598 24.6075C169.418 24.7175 169.208 24.8075 168.968 24.8675C168.728 24.9275 168.448 24.9575 168.128 24.9575C167.818 24.9575 167.528 24.9175 167.258 24.8475C166.988 24.7775 166.748 24.6575 166.548 24.4975C166.348 24.3375 166.188 24.1375 166.068 23.8875C165.948 23.6475 165.898 23.3475 165.898 23.0175C165.898 22.5575 165.998 22.1875 166.208 21.9275C166.418 21.6675 166.688 21.4675 167.028 21.3275C167.368 21.1875 167.748 21.0975 168.178 21.0375C168.598 20.9875 169.038 20.9275 169.478 20.8775C169.648 20.8575 169.798 20.8375 169.928 20.8075C170.058 20.7775 170.168 20.7375 170.248 20.6675C170.338 20.5975 170.398 20.5175 170.448 20.3975C170.498 20.2875 170.518 20.1375 170.518 19.9575C170.518 19.6875 170.478 19.4575 170.378 19.2775C170.288 19.0975 170.168 18.9575 170.008 18.8575C169.848 18.7575 169.668 18.6875 169.458 18.6475C169.248 18.6075 169.018 18.5875 168.778 18.5875C168.258 18.5875 167.838 18.7075 167.518 18.9575C167.188 19.1975 167.018 19.5975 166.998 20.1375H166.188C166.218 19.7475 166.298 19.4175 166.438 19.1275" fill="white"/>
<path d="M173.747 15.5898H172.938V24.7898H173.747V15.5898Z" fill="white"/>
<path d="M133.554 29.8616V30.5416H132.204V35.0316C132.204 35.3016 132.244 35.5116 132.314 35.6616C132.384 35.8116 132.574 35.8916 132.864 35.9116C133.094 35.9116 133.324 35.9016 133.564 35.8716V36.5516C133.444 36.5516 133.324 36.5516 133.204 36.5616C133.084 36.5616 132.964 36.5716 132.844 36.5716C132.304 36.5716 131.924 36.4616 131.704 36.2516C131.494 36.0416 131.384 35.6516 131.394 35.0816V30.5316H130.234V29.8516H131.394V27.8516H132.204V29.8516H133.554V29.8616Z" fill="white"/>
<path d="M139.337 31.8419C139.237 31.5619 139.097 31.3019 138.917 31.0919C138.737 30.8719 138.517 30.6919 138.257 30.5619C137.997 30.4319 137.707 30.3619 137.377 30.3619C137.047 30.3619 136.747 30.4319 136.487 30.5619C136.227 30.6919 136.007 30.8719 135.827 31.0919C135.647 31.3119 135.507 31.5619 135.397 31.8519C135.287 32.1419 135.217 32.4319 135.187 32.7319H139.487C139.487 32.4219 139.427 32.1219 139.327 31.8419M135.307 34.3219C135.387 34.6419 135.517 34.9219 135.697 35.1719C135.877 35.4219 136.107 35.6319 136.377 35.7919C136.647 35.9519 136.987 36.0319 137.367 36.0319C137.957 36.0319 138.427 35.8819 138.757 35.5719C139.087 35.2619 139.327 34.8519 139.457 34.3319H140.267C140.097 35.0919 139.777 35.6719 139.317 36.0819C138.857 36.4919 138.207 36.7019 137.367 36.7019C136.847 36.7019 136.387 36.6119 136.007 36.4219C135.627 36.2419 135.317 35.9819 135.077 35.6619C134.837 35.3419 134.657 34.9619 134.537 34.5419C134.427 34.1119 134.367 33.6719 134.367 33.1919C134.367 32.7519 134.427 32.3219 134.537 31.9019C134.657 31.4819 134.837 31.1019 135.077 30.7719C135.317 30.4419 135.627 30.1719 136.007 29.9719C136.387 29.7719 136.847 29.6719 137.367 29.6719C137.887 29.6719 138.357 29.7819 138.737 29.9919C139.117 30.2019 139.417 30.4919 139.657 30.8419C139.897 31.1919 140.067 31.5919 140.167 32.0419C140.267 32.4919 140.317 32.9519 140.297 33.4119H135.177C135.177 33.7019 135.217 34.0119 135.297 34.3219" fill="white"/>
<path d="M145.48 30.7819C145.18 30.5019 144.76 30.3519 144.22 30.3519C143.83 30.3519 143.49 30.4319 143.2 30.6019C142.91 30.7619 142.66 30.9819 142.47 31.2419C142.28 31.5119 142.13 31.8119 142.03 32.1519C141.93 32.4919 141.88 32.8319 141.88 33.1919C141.88 33.5519 141.93 33.8919 142.03 34.2319C142.13 34.5719 142.28 34.8719 142.47 35.1419C142.66 35.4119 142.9 35.6219 143.2 35.7819C143.49 35.9419 143.83 36.0219 144.22 36.0219C144.47 36.0219 144.7 35.9719 144.93 35.8819C145.15 35.7819 145.35 35.6519 145.52 35.4919C145.69 35.3219 145.83 35.1219 145.95 34.8919C146.06 34.6619 146.13 34.4019 146.16 34.1319H146.97C146.86 34.9419 146.56 35.5719 146.08 36.0219C145.6 36.4719 144.98 36.7019 144.22 36.7019C143.71 36.7019 143.26 36.6119 142.87 36.4219C142.48 36.2419 142.15 35.9819 141.89 35.6619C141.62 35.3419 141.42 34.9719 141.28 34.5519C141.14 34.1219 141.07 33.6719 141.07 33.1919C141.07 32.7119 141.14 32.2619 141.28 31.8319C141.42 31.4019 141.62 31.0319 141.89 30.7119C142.15 30.3919 142.49 30.1419 142.87 29.9519C143.26 29.7619 143.71 29.6719 144.22 29.6719C144.93 29.6719 145.54 29.8619 146.03 30.2419C146.52 30.6219 146.82 31.1919 146.91 31.9519H146.1C145.99 31.4519 145.78 31.0619 145.48 30.7819Z" fill="white"/>
<path d="M148.899 27.3125V31.0125H148.919C149.079 30.6125 149.349 30.2825 149.749 30.0425C150.149 29.8025 150.579 29.6725 151.049 29.6725C151.519 29.6725 151.899 29.7325 152.219 29.8525C152.529 29.9725 152.789 30.1425 152.979 30.3625C153.169 30.5825 153.299 30.8525 153.379 31.1625C153.459 31.4825 153.499 31.8425 153.499 32.2325V36.5125H152.689V32.3625C152.689 32.0825 152.659 31.8125 152.609 31.5725C152.559 31.3325 152.469 31.1125 152.339 30.9325C152.209 30.7525 152.039 30.6125 151.819 30.5125C151.599 30.4125 151.329 30.3625 150.999 30.3625C150.669 30.3625 150.379 30.4225 150.129 30.5325C149.879 30.6525 149.659 30.8125 149.489 31.0125C149.309 31.2125 149.179 31.4525 149.079 31.7325C148.979 32.0125 148.929 32.3125 148.919 32.6425V36.5225H148.109V27.3225H148.919L148.899 27.3125Z" fill="white"/>
<path d="M155.821 29.8619V31.0119H155.851C156.011 30.6119 156.281 30.2819 156.681 30.0419C157.081 29.8019 157.511 29.6719 157.981 29.6719C158.451 29.6719 158.831 29.7319 159.151 29.8519C159.461 29.9719 159.721 30.1419 159.901 30.3619C160.091 30.5819 160.221 30.8519 160.301 31.1719C160.381 31.4919 160.421 31.8419 160.421 32.2419V36.5219H159.611V32.3719C159.611 32.0819 159.581 31.8219 159.531 31.5819C159.481 31.3419 159.391 31.1219 159.261 30.9419C159.131 30.7619 158.961 30.6219 158.741 30.5219C158.521 30.4219 158.251 30.3719 157.921 30.3719C157.591 30.3719 157.301 30.4319 157.051 30.5419C156.801 30.6619 156.581 30.8219 156.411 31.0219C156.231 31.2219 156.101 31.4619 156.001 31.7419C155.901 32.0219 155.851 32.3219 155.841 32.6519V36.5319H155.031V29.8819H155.841L155.821 29.8619Z" fill="white"/>
<path d="M163.739 30.5997C163.449 30.7597 163.209 30.9797 163.009 31.2397C162.819 31.5097 162.669 31.8097 162.569 32.1497C162.469 32.4897 162.419 32.8297 162.419 33.1897C162.419 33.5497 162.469 33.8897 162.569 34.2297C162.669 34.5697 162.809 34.8697 163.009 35.1397C163.199 35.4097 163.439 35.6197 163.739 35.7797C164.029 35.9397 164.369 36.0197 164.759 36.0197C165.149 36.0197 165.489 35.9397 165.779 35.7797C166.069 35.6197 166.319 35.3997 166.509 35.1397C166.699 34.8697 166.849 34.5697 166.949 34.2297C167.049 33.8897 167.099 33.5497 167.099 33.1897C167.099 32.8297 167.049 32.4897 166.949 32.1497C166.849 31.8097 166.709 31.5097 166.509 31.2397C166.319 30.9697 166.069 30.7597 165.779 30.5997C165.489 30.4397 165.149 30.3597 164.759 30.3597C164.369 30.3597 164.029 30.4397 163.739 30.5997ZM166.109 29.9597C166.499 30.1497 166.829 30.3997 167.099 30.7197C167.369 31.0397 167.569 31.4097 167.709 31.8297C167.849 32.2597 167.919 32.7097 167.919 33.1897C167.919 33.6697 167.849 34.1297 167.709 34.5497C167.569 34.9797 167.369 35.3497 167.099 35.6597C166.829 35.9797 166.509 36.2297 166.109 36.4197C165.719 36.5997 165.269 36.6997 164.759 36.6997C164.249 36.6997 163.799 36.6097 163.409 36.4197C163.019 36.2397 162.689 35.9797 162.429 35.6597C162.159 35.3397 161.959 34.9697 161.819 34.5497C161.679 34.1297 161.609 33.6697 161.609 33.1897C161.609 32.7097 161.679 32.2597 161.819 31.8297C161.959 31.4097 162.159 31.0297 162.429 30.7197C162.699 30.3997 163.019 30.1497 163.409 29.9597C163.799 29.7697 164.249 29.6797 164.759 29.6797C165.269 29.6797 165.719 29.7797 166.109 29.9597Z" fill="white"/>
<path d="M169.927 27.3125H169.117V36.5125H169.927V27.3125Z" fill="white"/>
<path d="M173.288 30.5997C172.998 30.7597 172.758 30.9797 172.558 31.2397C172.368 31.5097 172.218 31.8097 172.118 32.1497C172.018 32.4897 171.968 32.8297 171.968 33.1897C171.968 33.5497 172.018 33.8897 172.118 34.2297C172.218 34.5697 172.358 34.8697 172.558 35.1397C172.748 35.4097 172.988 35.6197 173.288 35.7797C173.578 35.9397 173.918 36.0197 174.308 36.0197C174.698 36.0197 175.038 35.9397 175.328 35.7797C175.618 35.6197 175.868 35.3997 176.058 35.1397C176.248 34.8697 176.398 34.5697 176.498 34.2297C176.598 33.8897 176.648 33.5497 176.648 33.1897C176.648 32.8297 176.598 32.4897 176.498 32.1497C176.398 31.8097 176.258 31.5097 176.058 31.2397C175.868 30.9697 175.618 30.7597 175.328 30.5997C175.038 30.4397 174.698 30.3597 174.308 30.3597C173.918 30.3597 173.578 30.4397 173.288 30.5997ZM175.658 29.9597C176.048 30.1497 176.378 30.3997 176.648 30.7197C176.918 31.0397 177.118 31.4097 177.258 31.8297C177.398 32.2597 177.468 32.7097 177.468 33.1897C177.468 33.6697 177.398 34.1297 177.258 34.5497C177.118 34.9797 176.918 35.3497 176.648 35.6597C176.378 35.9797 176.058 36.2297 175.658 36.4197C175.268 36.5997 174.818 36.6997 174.308 36.6997C173.798 36.6997 173.348 36.6097 172.958 36.4197C172.568 36.2397 172.238 35.9797 171.968 35.6597C171.698 35.3397 171.498 34.9697 171.358 34.5497C171.218 34.1297 171.148 33.6697 171.148 33.1897C171.148 32.7097 171.218 32.2597 171.358 31.8297C171.498 31.4097 171.698 31.0297 171.968 30.7197C172.238 30.3997 172.568 30.1497 172.958 29.9597C173.348 29.7697 173.798 29.6797 174.308 29.6797C174.818 29.6797 175.268 29.7797 175.658 29.9597Z" fill="white"/>
<path d="M182.264 35.5302C182.534 35.3802 182.754 35.1802 182.934 34.9402C183.114 34.7002 183.254 34.4102 183.344 34.0902C183.434 33.7702 183.484 33.4502 183.484 33.1102C183.484 32.7702 183.444 32.4602 183.364 32.1302C183.284 31.8002 183.164 31.5102 182.994 31.2402C182.824 30.9702 182.604 30.7602 182.334 30.6002C182.064 30.4402 181.734 30.3602 181.344 30.3602C180.954 30.3602 180.624 30.4402 180.354 30.6002C180.074 30.7602 179.854 30.9702 179.674 31.2202C179.494 31.4802 179.364 31.7702 179.284 32.1002C179.204 32.4302 179.164 32.7702 179.164 33.1102C179.164 33.4502 179.204 33.7702 179.294 34.0902C179.384 34.4102 179.514 34.6902 179.694 34.9402C179.874 35.1802 180.104 35.3802 180.374 35.5302C180.654 35.6802 180.974 35.7602 181.354 35.7602C181.704 35.7602 182.014 35.6902 182.284 35.5302M184.144 37.3002C184.034 37.7002 183.864 38.0302 183.634 38.3102C183.404 38.5802 183.104 38.8002 182.724 38.9402C182.354 39.0902 181.894 39.1602 181.354 39.1602C181.014 39.1602 180.694 39.1202 180.374 39.0402C180.054 38.9602 179.774 38.8402 179.514 38.6802C179.264 38.5202 179.054 38.3102 178.884 38.0502C178.714 37.8002 178.614 37.5002 178.594 37.1402H179.404C179.444 37.3902 179.534 37.6002 179.654 37.7702C179.774 37.9402 179.924 38.0702 180.104 38.1802C180.284 38.2802 180.474 38.3602 180.694 38.4002C180.914 38.4502 181.124 38.4702 181.354 38.4702C182.114 38.4702 182.654 38.2602 182.994 37.8302C183.324 37.4002 183.494 36.7802 183.494 35.9702V35.0702H183.464C183.274 35.4802 182.994 35.8102 182.634 36.0602C182.264 36.3102 181.844 36.4302 181.354 36.4302C180.824 36.4302 180.364 36.3402 179.984 36.1702C179.604 35.9902 179.294 35.7502 179.054 35.4402C178.804 35.1302 178.624 34.7702 178.514 34.3502C178.404 33.9302 178.344 33.4902 178.344 33.0202C178.344 32.5502 178.414 32.1302 178.544 31.7202C178.684 31.3102 178.874 30.9602 179.124 30.6502C179.374 30.3502 179.694 30.1002 180.064 29.9302C180.434 29.7502 180.864 29.6602 181.344 29.6602C181.594 29.6602 181.824 29.6902 182.044 29.7602C182.264 29.8302 182.464 29.9202 182.644 30.0502C182.824 30.1702 182.984 30.3202 183.124 30.4802C183.264 30.6402 183.374 30.8102 183.454 30.9902H183.484V29.8402H184.294V35.9502C184.294 36.4402 184.244 36.8802 184.134 37.2802" fill="white"/>
<path d="M185.844 36.5125H186.654V29.8625H185.844V36.5125ZM185.844 28.6125H186.654V27.3125H185.844V28.6125Z" fill="white"/>
<path d="M192.837 31.8419C192.737 31.5619 192.597 31.3019 192.417 31.0919C192.237 30.8719 192.017 30.6919 191.757 30.5619C191.497 30.4319 191.207 30.3619 190.877 30.3619C190.547 30.3619 190.247 30.4319 189.987 30.5619C189.727 30.6919 189.507 30.8719 189.327 31.0919C189.147 31.3119 189.007 31.5619 188.897 31.8519C188.787 32.1419 188.717 32.4319 188.687 32.7319H192.987C192.987 32.4219 192.927 32.1219 192.827 31.8419M188.807 34.3219C188.887 34.6419 189.017 34.9219 189.197 35.1719C189.377 35.4219 189.607 35.6319 189.877 35.7919C190.147 35.9519 190.487 36.0319 190.867 36.0319C191.457 36.0319 191.927 35.8819 192.257 35.5719C192.597 35.2619 192.827 34.8519 192.957 34.3319H193.767C193.597 35.0919 193.277 35.6719 192.817 36.0819C192.357 36.4919 191.707 36.7019 190.867 36.7019C190.347 36.7019 189.887 36.6119 189.507 36.4219C189.127 36.2419 188.817 35.9819 188.577 35.6619C188.337 35.3419 188.157 34.9619 188.037 34.5419C187.927 34.1119 187.867 33.6719 187.867 33.1919C187.867 32.7519 187.927 32.3219 188.037 31.9019C188.157 31.4819 188.337 31.1019 188.577 30.7719C188.817 30.4419 189.127 30.1719 189.507 29.9719C189.887 29.7719 190.347 29.6719 190.867 29.6719C191.387 29.6719 191.857 29.7819 192.237 29.9919C192.617 30.2019 192.917 30.4919 193.157 30.8419C193.397 31.1919 193.567 31.5919 193.667 32.0419C193.767 32.4919 193.817 32.9519 193.797 33.4119H188.677C188.677 33.7019 188.717 34.0119 188.797 34.3219" fill="white"/>
<path d="M198.731 31.1619C198.641 30.9819 198.511 30.8219 198.351 30.7019C198.191 30.5819 198.011 30.4919 197.801 30.4319C197.591 30.3719 197.381 30.3519 197.141 30.3519C196.961 30.3519 196.781 30.3719 196.591 30.4119C196.411 30.4519 196.231 30.5119 196.081 30.6019C195.931 30.6919 195.801 30.8119 195.711 30.9519C195.621 31.1019 195.571 31.2819 195.571 31.4919C195.571 31.6719 195.621 31.8219 195.711 31.9519C195.801 32.0719 195.911 32.1819 196.051 32.2719C196.191 32.3519 196.341 32.4319 196.501 32.4819C196.661 32.5419 196.811 32.5819 196.951 32.6219L198.031 32.8619C198.261 32.8919 198.491 32.9619 198.721 33.0519C198.951 33.1419 199.151 33.2619 199.331 33.4019C199.501 33.5519 199.651 33.7319 199.761 33.9419C199.871 34.1519 199.931 34.4119 199.931 34.7019C199.931 35.0619 199.851 35.3719 199.691 35.6219C199.531 35.8719 199.321 36.0819 199.061 36.2419C198.811 36.4019 198.521 36.5119 198.201 36.5819C197.881 36.6519 197.571 36.6819 197.261 36.6819C196.481 36.6819 195.851 36.5019 195.361 36.1319C194.871 35.7619 194.601 35.1719 194.531 34.3519H195.341C195.371 34.9019 195.571 35.3219 195.941 35.6019C196.311 35.8819 196.761 36.0219 197.301 36.0219C197.501 36.0219 197.701 36.0019 197.911 35.9519C198.121 35.9119 198.321 35.8319 198.501 35.7319C198.681 35.6319 198.831 35.5019 198.941 35.3419C199.061 35.1819 199.111 34.9819 199.111 34.7519C199.111 34.5519 199.071 34.3919 198.991 34.2519C198.911 34.1219 198.801 34.0119 198.661 33.9219C198.521 33.8319 198.371 33.7619 198.191 33.6919C198.011 33.6319 197.841 33.5819 197.661 33.5419L196.621 33.3119C196.351 33.2419 196.111 33.1619 195.891 33.0719C195.671 32.9819 195.471 32.8719 195.301 32.7419C195.131 32.6119 195.001 32.4419 194.911 32.2519C194.821 32.0619 194.771 31.8219 194.771 31.5319C194.771 31.2019 194.851 30.9119 195.001 30.6719C195.151 30.4319 195.351 30.2419 195.591 30.0919C195.831 29.9419 196.101 29.8419 196.401 29.7719C196.701 29.7019 196.991 29.6719 197.281 29.6719C197.621 29.6719 197.931 29.7119 198.211 29.8019C198.501 29.8819 198.751 30.0219 198.971 30.2019C199.191 30.3819 199.361 30.6019 199.491 30.8719C199.621 31.1419 199.691 31.4519 199.711 31.8119H198.901C198.901 31.5619 198.841 31.3419 198.751 31.1619" fill="white"/>
</g>
<defs>
<clipPath id="clip0_587_12805">
<rect width="199.93" height="74.31" fill="white"/>
</clipPath>
</defs>
</svg>
