<svg width="29" height="29" viewBox="0 0 29 29" fill="none" xmlns="http://www.w3.org/2000/svg">
<path d="M14.3926 28.0742C6.77734 28.0742 0.447266 21.7441 0.447266 14.1289C0.447266 6.5 6.76367 0.183594 14.3789 0.183594C22.0078 0.183594 28.3379 6.5 28.3379 14.1289C28.3379 21.7441 22.0215 28.0742 14.3926 28.0742ZM14.3926 25.75C20.8457 25.75 26.0137 20.582 26.0137 14.1289C26.0137 7.67578 20.832 2.50781 14.3789 2.50781C7.92578 2.50781 2.78516 7.67578 2.78516 14.1289C2.78516 20.582 7.93945 25.75 14.3926 25.75ZM8.04883 14.1289C8.04883 13.4453 8.51367 12.9668 9.21094 12.9668H13.2305V8.94727C13.2305 8.25 13.6953 7.77148 14.3652 7.77148C15.0488 7.77148 15.5273 8.25 15.5273 8.94727V12.9668H19.5605C20.2441 12.9668 20.7227 13.4453 20.7227 14.1289C20.7227 14.7988 20.2441 15.25 19.5605 15.25H15.5273V19.2832C15.5273 19.9805 15.0488 20.4453 14.3652 20.4453C13.6953 20.4453 13.2305 19.9668 13.2305 19.2832V15.25H9.21094C8.51367 15.25 8.04883 14.7988 8.04883 14.1289Z" fill="#FF511B"/>
</svg>
