<svg width="199" height="193" viewBox="0 0 199 193" fill="none" xmlns="http://www.w3.org/2000/svg">
    <path d="M190.854 84.6447C183.34 70.1314 174.894 56.1089 166.681 41.9798C163.527 36.5587 160.32 31.0521 156.319 26.282C138.729 5.36574 115.995 -2.56322 89.3238 0.712943C66.4946 3.51956 48.9044 15.1729 36.8918 34.7872C27.2182 50.6024 17.9785 66.7058 9.23632 83.0546C-2.19417 104.408 -3.15729 126.648 7.14073 148.663C20.4657 177.178 42.9668 192.267 74.4959 192.918C82.8254 193.089 91.1654 192.94 99.5054 192.94C108.576 192.929 117.646 193.1 126.706 192.865C131.363 192.737 136.062 192.257 140.623 191.317C185.721 182.033 213.726 128.836 190.854 84.6447ZM134.771 175.961C124.335 177.466 113.614 176.9 103.019 177.263C101.876 177.306 100.723 177.274 99.5795 177.274H76.7503C46.8511 177.274 23.8208 158.812 17.3753 129.316C14.1895 114.728 17.0895 100.993 24.4346 88.1449C32.3301 74.3146 40.3315 60.5483 48.1635 46.686C57.6148 29.9423 71.5537 19.4522 90.4669 16.5388C112.915 13.0813 135.956 21.7786 149.069 43.5165C158.383 58.9369 167.295 74.6241 175.942 90.4286C195.776 126.701 171.581 170.668 134.771 175.961Z" fill="#515151"></path>
    <path d="M163.737 96.5325C155.46 81.475 146.93 66.5561 138.156 51.7867C120.343 21.8317 78.1774 22.2265 60.7354 52.395C52.5541 66.5455 44.521 80.7706 36.3821 94.9424C32.1591 102.274 30.0424 110.064 30.1059 118.623C30.2858 142.9 49.7811 162.952 73.9122 163.24C82.5591 163.347 91.2061 163.262 99.853 163.262V163.294C107.78 163.294 115.697 163.358 123.614 163.262C126.725 163.219 129.869 163.038 132.917 162.472C162.467 157.019 178.374 123.126 163.737 96.5325ZM130.123 146.657C128.016 147.126 125.783 147.126 123.614 147.137C115.591 147.19 107.569 147.158 99.5461 147.158V147.116C90.698 147.116 81.8394 147.308 72.9914 147.073C59.8992 146.721 48.4052 136.049 46.2356 123.041C45.0608 116.061 46.352 109.669 49.7282 103.682C57.9624 89.0944 66.3342 74.5705 74.6636 60.0358C85.6073 40.9337 113.707 40.9658 124.619 60.1105C132.864 74.5705 141.331 88.913 149.406 103.48C159.27 121.258 149.798 142.271 130.123 146.657Z" fill="#515151"></path>
    <path d="M137.078 109.499C129.214 95.658 121.265 81.8703 113.359 68.0507C106.85 56.6641 92.6787 56.4294 86.0956 67.7412C77.9249 81.7636 69.8706 95.8607 61.954 110.033C60.6733 112.327 59.8055 115.134 59.689 117.748C59.2657 126.627 66.3039 133.435 75.8399 133.585C83.7566 133.713 91.6732 133.606 99.5899 133.606C107.507 133.606 115.635 133.777 123.657 133.574C136.707 133.243 143.544 120.907 137.078 109.499ZM118.344 117.407C112.1 117.428 105.845 117.417 99.6005 117.417C93.3561 117.417 86.6883 117.449 80.2427 117.407C76.8771 117.385 76.4326 116.628 78.0942 113.714C84.5186 102.445 90.9641 91.1759 97.4308 79.9281C99.2089 76.844 100.066 76.844 101.834 79.9068C108.195 90.9838 114.545 102.061 120.863 113.149C122.948 116.82 122.578 117.407 118.344 117.407Z" fill="#515151"></path>
</svg>