<svg id="_Слой_1" data-name="Слой 1" xmlns="http://www.w3.org/2000/svg" viewBox="0 0 320.38 331.72">
    <defs>
        <style>
            .cls-1 {
            fill: #515151;
            stroke-width: 0px;
            }
        </style>
    </defs>
    <path class="cls-1"
        d="m2.45,125.25h-.02v2h.02v-2Zm1,14.76v-13.76H1.45v13.76h2Zm9.77,10.5c-3.56,0-5.95-1.01-7.46-2.72-1.53-1.72-2.32-4.32-2.31-7.79h-2c0,3.73.83,6.89,2.82,9.11,2,2.25,5.01,3.39,8.96,3.39v-2Zm9.65-10.74c-.11,3.44-.84,6.1-2.31,7.89-1.44,1.75-3.73,2.83-7.34,2.84v2c4.04,0,6.96-1.24,8.88-3.57,1.88-2.29,2.66-5.47,2.77-9.1l-2-.06Zm1.45-29.23c-1.1,9.7-1.14,19.54-1.45,29.23l2,.06c.31-9.77.35-19.48,1.43-29.07l-1.99-.23ZM140.21,24.26C85.98,15.05,30.53,56.02,24.32,110.55l1.99.23c6.08-53.37,60.45-93.56,113.57-84.54l.33-1.97Zm47.58,20.13c-14.79-8.87-29.92-17.12-47.58-20.13l-.34,1.97c17.27,2.94,32.11,11.02,46.89,19.87l1.03-1.72Zm15.06-2.16c-1.81,3.15-4.07,4.5-6.53,4.72-2.53.23-5.46-.72-8.53-2.56l-1.03,1.72c3.25,1.95,6.61,3.12,9.74,2.84,3.21-.29,6.01-2.1,8.08-5.71l-1.73-1Zm-3.68-15.34c2.93,1.98,4.62,4.43,5.21,7.03.59,2.6.1,5.47-1.53,8.3l1.73,1c1.84-3.2,2.46-6.57,1.74-9.74-.72-3.17-2.76-6.03-6.04-8.25l-1.12,1.66ZM130.97,2.12c25.2,1.19,47.5,10.82,68.2,24.77l1.12-1.66C179.39,11.15,156.74,1.34,131.07.13l-.09,2ZM3.43,126.22C1.39,47.45,68.99-.79,130.97,2.12l.09-2C68.13-2.83-.65,46.14,1.43,126.28l2-.05Zm96.41,5.82v.04h2v-.04h-2Zm2,9.44c-.07-3.14,0-6.25,0-9.44h-2c0,3.12-.07,6.32,0,9.49l2-.05Zm9.78,10.05c-2.95,0-5.32-.94-6.98-2.6-1.66-1.67-2.71-4.16-2.79-7.45l-2,.05c.1,3.69,1.28,6.71,3.38,8.81,2.1,2.1,5.02,3.19,8.4,3.19v-2Zm9.54-10.11c.03,3.35-.95,5.86-2.57,7.52-1.62,1.66-4,2.59-6.97,2.59v2c3.39,0,6.32-1.07,8.4-3.2,2.07-2.12,3.18-5.18,3.14-8.94l-2,.02Zm.07-5.21c-.07,1.73-.09,3.49-.07,5.21l2-.02c-.02-1.7,0-3.41.07-5.11l-2-.09Zm13.68-7.35c-2.27-1.3-4.21-2.22-5.86-2.68-1.65-.46-3.14-.49-4.4.19-1.26.68-2.04,1.95-2.54,3.56-.5,1.61-.76,3.71-.87,6.28l2,.09c.11-2.51.36-4.41.79-5.78.42-1.37.97-2.07,1.58-2.39.61-.33,1.51-.41,2.92-.02,1.41.39,3.18,1.21,5.4,2.49l1-1.73Zm51.44,29.85c-17.1-10.01-34.24-19.98-51.44-29.85l-1,1.73c17.19,9.86,34.32,19.83,51.42,29.84l1.01-1.73Zm.27,15.45c2.4-1.41,4.27-2.65,5.55-3.83,1.26-1.17,2.1-2.43,2.07-3.87-.03-1.43-.91-2.68-2.21-3.86-1.31-1.19-3.23-2.46-5.69-3.9l-1.01,1.73c2.44,1.43,4.2,2.61,5.35,3.65,1.17,1.06,1.54,1.83,1.55,2.42.01.58-.32,1.33-1.43,2.36-1.1,1.02-2.81,2.18-5.2,3.57l1.01,1.73Zm-46.24,26.77c15.46-8.83,30.87-17.78,46.24-26.77l-1.01-1.73c-15.37,8.99-30.77,17.94-46.23,26.76l.99,1.74Zm-19.16-10.18c.38,4.59.68,8.12,1.17,10.64.25,1.27.55,2.34.97,3.2.42.87,1,1.57,1.79,1.99.8.42,1.7.5,2.65.36.94-.14,2-.49,3.18-1,2.35-1.02,5.41-2.76,9.39-5.02l-.99-1.74c-4.02,2.29-6.97,3.96-9.19,4.92-1.11.48-1.98.76-2.67.85-.68.1-1.12.02-1.43-.15-.31-.17-.63-.49-.94-1.11-.31-.63-.57-1.51-.81-2.7-.47-2.39-.76-5.79-1.14-10.42l-1.99.17Zm-9.44-9.27c2.94.03,5.14.85,6.67,2.34,1.53,1.49,2.51,3.77,2.77,6.94l1.99-.16c-.29-3.49-1.39-6.28-3.37-8.21-1.99-1.93-4.73-2.88-8.04-2.9l-.02,2Zm-9.79,9.16c.29-2.94,1.33-5.22,2.95-6.77,1.61-1.54,3.89-2.42,6.84-2.4l.02-2c-3.38-.03-6.19,1-8.23,2.95-2.04,1.94-3.23,4.72-3.56,8.02l1.99.2Zm-.24,14.63c.27-2.49.21-5.01.14-7.45-.07-2.46-.14-4.84.09-7.19l-1.99-.2c-.24,2.49-.17,5-.1,7.44.07,2.46.12,4.84-.13,7.18l1.99.22Zm35.8,21.13c-8.61,5.1-18.11,4.71-25.17.62-7.05-4.08-11.71-11.87-10.63-21.75l-1.99-.22c-1.17,10.69,3.91,19.23,11.62,23.69,7.69,4.46,17.97,4.83,27.19-.63l-1.02-1.72Zm68.49-39.89c-22.72,13.57-45.69,26.39-68.49,39.89l1.02,1.72c22.67-13.42,45.86-26.37,68.5-39.89l-1.03-1.72Zm-.31-40.2c8.53,5.09,12.74,12.66,12.79,20.13.06,7.47-4.04,15.02-12.48,20.06l1.03,1.72c8.98-5.36,13.52-13.53,13.46-21.8-.06-8.26-4.72-16.44-13.77-21.84l-1.02,1.72Zm-69.38-40.06c23.38,12.88,46.43,26.37,69.38,40.06l1.02-1.72c-22.96-13.69-46.03-27.19-69.44-40.09l-.97,1.75Zm-16.45-2.97c5.19-.87,11.77.39,16.45,2.97l.96-1.75c-5.05-2.78-12.08-4.14-17.75-3.19l.33,1.97Zm-18.05,28.78c-.02-9.45,1.17-16.06,3.97-20.59,2.76-4.45,7.19-7.04,14.08-8.2l-.33-1.97c-7.26,1.23-12.29,4.03-15.45,9.12-3.11,5.02-4.29,12.1-4.28,21.64h2Zm-48.86,34.8l.02-.04-1.79-.89-.02.04,1.79.89Zm-2.15.55h1.26v-2h-1.26v2Zm1.11,42.87c-.53-14.6-.11-29.19-.11-43.87h-2c0,14.6-.42,29.29.11,43.94l2-.07Zm25.53,52.43c-16.73-13.25-24.74-31.3-25.53-52.44l-2,.07c.81,21.64,9.04,40.27,26.29,53.93l1.24-1.57Zm98.02-1.69c-15.72,11.05-31.96,18.01-48.37,18.94-16.38.94-33.04-4.11-49.66-17.25l-1.24,1.57c16.95,13.41,34.09,18.65,51.01,17.68,16.9-.97,33.49-8.12,49.4-19.31l-1.15-1.64Zm3.01-13.32c1.31,2.49,1.71,5,1.23,7.27-.48,2.26-1.84,4.37-4.24,6.05l1.15,1.64c2.76-1.94,4.45-4.47,5.04-7.28.59-2.8.07-5.78-1.41-8.61l-1.77.93Zm-13.7-3.54c2.73-1.21,5.44-1.7,7.8-1.22,2.31.47,4.39,1.89,5.9,4.76l1.77-.93c-1.76-3.36-4.33-5.2-7.27-5.79-2.9-.59-6.05.04-9.01,1.35l.81,1.83Zm-15.64,8.88c2.67-1.46,5.27-3.11,7.83-4.66,2.58-1.56,5.14-3.04,7.81-4.22l-.81-1.83c-2.8,1.24-5.45,2.77-8.04,4.34-2.61,1.58-5.13,3.18-7.75,4.61l.96,1.75Zm-76.54-44.37c.37,38.65,42.62,63.03,76.54,44.37l-.96-1.75c-32.62,17.95-73.22-5.52-73.58-42.63l-2,.02Zm0-85.25c-.29,28.41-.27,56.84,0,85.25l2-.02c-.27-28.4-.29-56.82,0-85.21l-2-.02Zm75.24-44.5c-33.23-18.05-74.85,6.82-75.24,44.5l2,.02c.38-36.19,40.4-60.08,72.29-42.76l.95-1.76Zm76.04,44.19c-24.83-15.55-50.29-30.2-76.04-44.19l-.95,1.76c25.73,13.98,51.14,28.61,75.94,44.13l1.06-1.7Zm.14,86.83c31.91-20.86,32.22-66.57-.14-86.83l-1.06,1.7c31.08,19.45,30.84,63.37.11,83.46l1.09,1.67Zm-15.51,9.32c2.52-1.6,5.12-3.1,7.74-4.62,2.61-1.51,5.23-3.05,7.77-4.71l-1.09-1.68c-2.49,1.62-5.07,3.14-7.68,4.65-2.6,1.51-5.24,3.03-7.8,4.66l1.07,1.69Zm-5.1,14.41c-1.67-2.53-1.99-5.06-1.17-7.44.84-2.42,2.9-4.84,6.27-6.97l-1.07-1.69c-3.6,2.28-6.05,5.01-7.09,8.01-1.05,3.03-.58,6.21,1.39,9.2l1.67-1.1Zm15.36,2.91c-3,1.58-5.87,2.32-8.43,1.96-2.52-.35-4.9-1.78-6.93-4.87l-1.67,1.1c2.29,3.49,5.15,5.31,8.33,5.76,3.14.44,6.44-.49,9.64-2.17l-.93-1.77Zm18.4-10.93c-5.86,4.04-12.08,7.61-18.4,10.93l.93,1.77c6.37-3.35,12.66-6.96,18.61-11.06l-1.13-1.65Zm1.64-116.66c40.31,27.51,38.71,88.89-1.64,116.66l1.13,1.65c41.43-28.5,43.19-91.6,1.64-119.96l-1.13,1.65Zm-86.31-49.95c29.86,14.47,58.91,31.26,86.31,49.95l1.13-1.65c-27.48-18.75-56.62-35.59-86.56-50.1l-.87,1.8Zm-99.05,53.43c6.58-46.33,56.94-73.85,99.05-53.43l.87-1.8c-43.36-21.03-95.14,7.31-101.9,54.94l1.98.28Zm-.39,53.92c0-9.02-.53-18.19-.74-27.18-.21-9.03-.11-17.97,1.13-26.73l-1.98-.28c-1.27,8.92-1.37,18-1.15,27.06.22,9.1.74,18.13.74,27.13h2Zm266.61-4.53l-.02-.02-1.41,1.41.02.02,1.41-1.41Zm-4.9-22.7c1.85,8.87,2.45,17.9,3.2,23.54l1.98-.26c-.72-5.45-1.35-14.72-3.22-23.68l-1.96.41Zm-74.22-87.04c37.2,18.59,65.41,44.71,74.22,87.04l1.96-.41c-8.98-43.14-37.77-69.67-75.28-88.42l-.89,1.79Zm-13.34,4.44c1.48-2.64,3.4-4.44,5.61-5.24,2.19-.8,4.79-.67,7.73.8l.89-1.79c-3.35-1.67-6.52-1.9-9.31-.89-2.77,1.01-5.03,3.21-6.67,6.14l1.75.98Zm3.36,12.97c-2.48-1.63-3.98-3.66-4.54-5.84-.56-2.17-.23-4.61,1.18-7.13l-1.75-.98c-1.62,2.89-2.08,5.86-1.37,8.61.71,2.75,2.57,5.16,5.38,7.01l1.1-1.67Zm19.17,11.55c-3.16-2.03-6.42-3.9-9.65-5.77-3.24-1.87-6.44-3.74-9.52-5.78l-1.1,1.67c3.14,2.08,6.39,3.98,9.62,5.85,3.24,1.87,6.46,3.72,9.57,5.72l1.08-1.68Zm.77,169.03c62.35-40.18,61.6-128.99-.77-169.03l-1.08,1.68c61.17,39.27,61.87,126.29.76,165.67l1.08,1.68Zm-82.01,47.58c28.01-14.6,55.46-30.48,82.01-47.58l-1.08-1.68c-26.5,17.07-53.89,32.91-81.85,47.48l.92,1.77ZM26.29,234.78c16.04,61.04,86.2,92.12,142.25,62.91l-.92-1.77c-54.91,28.62-123.68-1.85-139.39-61.65l-1.93.51Zm-3.82-41.87c.54,6.96.61,13.97.99,21.06.38,7.04,1.06,14.06,2.84,20.82l1.93-.51c-1.72-6.56-2.4-13.42-2.77-20.41-.37-6.95-.45-14.14-.99-21.1l-1.99.15Zm-10.26-11.73c2.99.02,5.37,1.11,7.09,3.06,1.74,1.97,2.87,4.9,3.17,8.67l1.99-.16c-.32-4.07-1.56-7.45-3.66-9.84-2.12-2.41-5.06-3.72-8.58-3.74v2Zm-10.21,11.52c-.07-3.7,1.03-6.57,2.83-8.51,1.79-1.94,4.36-3.02,7.38-3.01v-2c-3.52,0-6.63,1.27-8.85,3.65C1.16,185.21-.07,188.62,0,192.74l2-.04Zm2.19,37.48c-2.26-12.16-1.93-24.86-2.19-37.49l-2,.04c.25,12.5-.08,25.44,2.22,37.81l1.97-.37Zm179.51,83.87c-72.38,40.81-164.27-2.01-179.51-83.87l-1.97.37c15.49,83.21,108.88,126.73,182.46,85.25l-.98-1.74Zm74.42-43.29c-24.62,14.73-49.43,29.2-74.42,43.29l.98,1.74c25-14.1,49.82-28.58,74.46-43.31l-1.03-1.72Zm59.86-108.25c-1.3,49.27-20.35,84.63-59.86,108.25l1.03,1.72c40.16-24.01,59.51-60.04,60.83-109.91l-2-.05ZM2.45,126.25h1v-1h-1v1Zm0,13.76h1s0,0,0,0h-1Zm10.77,11.5v1h0v-1Zm10.65-11.7l-1-.03h0s1,.03,1,.03Zm1.44-29.15l-.99-.11h0s.99.11.99.11ZM140.04,25.25l.17-.99h0s-.17.99-.17.99Zm47.24,20l.51-.86h0s-.51.86-.51.86Zm16.44-2.52l.87.5h0s-.87-.5-.87-.5Zm-3.99-16.66l.56-.83h0s-.56.83-.56.83ZM131.02,1.13l.05-1h0s-.05,1-.05,1ZM2.43,126.25l-1,.03.03.97h.97v-1Zm98.41,15.26l-1,.02h0s1-.02,1-.02Zm21.31-.09h1s-1,0-1,0Zm.07-5.16l-1-.04h0s1,.04,1,.04Zm12.18-6.53l-.5.87h0s.5-.87.5-.87Zm51.43,29.85l-.51.86h0s.5-.86.5-.86Zm.27,13.73l-.5-.86h0s.5.86.5.86Zm-46.24,26.76l.5.87h0s-.5-.87-.5-.87Zm-17.67-9.39l-1,.08h0s1-.08,1-.08Zm-10.43-10.19v-1s0,0,0,0v1Zm-10.79,10.06l-1-.1h0s1,.1,1,.1Zm-.24,14.62l-.99-.11h0s.99.11.99.11Zm37.3,22.1l-.51-.86h0s.51.86.51.86Zm68.5-39.89l.51.86-.51-.86Zm-.31-41.91l-.51.86h0s.51-.86.51-.86Zm-69.41-40.07l.48-.88h0s-.48.88-.48.88Zm-17.1-3.08l-.17-.99h0s.17.99.17.99Zm-18.89,29.77h-1s2,0,2,0h-1Zm-48.76,34.35v1h.62l.28-.55-.89-.45Zm-1.26,0v-1h-1v1h1Zm.11,43.9l-1,.04h0s1-.04,1-.04Zm25.91,53.18l-.62.78h0s.62-.78.62-.78Zm99.22-1.66l.58.82h0s-.58-.82-.58-.82Zm3.32-14.6l-.89.46h0s.89-.46.89-.46Zm-14.99-3.99l-.4-.91h0s.41.91.41.91Zm-15.72,8.92l-.48-.88h0s.48.88.48.88Zm-75.06-43.5h1s-1,0-1,0Zm0-85.23h-1s0-.01,0-.01h1Zm73.77-43.63l.48-.88h0s-.48.88-.48.88Zm75.99,44.16l-.53.85h0s.53-.85.53-.85Zm.13,85.14l.55.84h0s-.55-.84-.55-.84Zm-15.5,9.32l.54.84h0s-.54-.84-.54-.84Zm-5.4,15.81l.84-.55h0s-.83.55-.83.55Zm16.66,3.25l-.47-.89h0s.47.89.47.89Zm18.51-10.99l-.57-.82h0s.57.82.57.82Zm1.64-118.31l.56-.83h0l-.56.83Zm-86.44-50.03l-.44.9h0s.44-.9.44-.9Zm-100.47,54.18l.99.14h0s-.99-.14-.99-.14Zm-.4,54.06l.89.45.11-.21v-.24h-1Zm266.9-3.83l-.71.71,2.08,2.09-.38-2.92-.99.13Zm-3.21-23.61l-.98.2h0s.98-.2.98-.2Zm-74.75-87.73l.45-.89h0s-.45.89-.45.89Zm-14.66,4.85l.87.49h0s-.87-.49-.87-.49Zm3.68,14.29l.55-.83h0s-.55.83-.55.83Zm19.18,11.56l-.54.84h0s.54-.84.54-.84Zm.77,167.35l.54.84h0s-.54-.84-.54-.84Zm-81.93,47.53l-.46-.89h0l.46.89ZM27.26,234.53l.97-.25h0s-.97.25-.97.25Zm-3.79-41.7l1-.08h0s-1,.08-1,.08Zm-11.25-12.65v-1s0,0,0,0v1Zm-11.21,12.54l-1,.02h0s1-.02,1-.02Zm2.21,37.65l-.98.18h0s.98-.18.98-.18Zm180.99,84.56l-.49-.87.49.87Zm74.44-43.3l-.51-.86h0s.51.86.51.86Zm60.35-109.08l.71-.71-1.65-1.65-.06,2.33,1,.03Z"></path>
    <path class="cls-1"
        d="m318.98,162.55c-1.31,49.57-20.51,85.27-60.35,109.08-24.63,14.73-49.44,29.21-74.44,43.3-72.98,41.15-165.62-2.02-180.99-84.56-2.28-12.27-1.95-25.09-2.21-37.65-.15-7.82,4.67-12.56,11.21-12.54,6.51.04,10.63,4.81,11.25,12.65,1.08,13.93.29,28.39,3.79,41.7,15.88,60.42,85.34,91.19,140.82,62.28,27.99-14.59,55.41-30.45,81.93-47.53,61.73-39.78,61-127.69-.77-167.35-6.27-4.03-12.96-7.44-19.18-11.56-5.29-3.48-6.71-8.88-3.68-14.29,3.12-5.58,8.37-7.99,14.66-4.85,37.36,18.67,65.85,45,74.75,87.73,1.86,8.92,2.48,18.07,3.21,23.61l-.02-.02Z"></path>
    <path class="cls-1"
        d="m52.1,166.39c0-18.03-2.11-36.37.4-54.06,6.67-46.98,57.74-74.91,100.47-54.18,29.9,14.49,59,31.3,86.44,50.03,40.93,27.93,39.25,90.17-1.64,118.31-5.91,4.07-12.16,7.66-18.51,10.99-6.2,3.26-12.34,3.34-16.66-3.25-3.65-5.52-1.57-11.39,5.4-15.81,5.09-3.23,10.46-6.03,15.5-9.32,31.32-20.47,31.6-65.29-.13-85.14-24.81-15.53-50.25-30.17-75.99-44.16-32.56-17.68-73.38,6.69-73.77,43.63-.29,28.4-.27,56.83,0,85.23.36,37.89,41.79,61.81,75.06,43.5,5.29-2.9,10.25-6.49,15.72-8.92,5.69-2.52,11.72-2.24,14.99,3.99,2.79,5.32,1.84,10.98-3.32,14.6-31.63,22.24-65.65,28.2-99.22,1.66-16.99-13.45-25.11-31.8-25.91-53.18-.53-14.62-.11-29.26-.11-43.9h1.26l.02-.04Z"></path>
    <path class="cls-1"
        d="m100.84,132.08c-.04-19,4.74-27.38,18.89-29.77,5.43-.91,12.23.4,17.1,3.08,23.39,12.89,46.45,26.38,69.41,40.07,17.58,10.48,17.74,31.5.31,41.91-22.68,13.55-45.76,26.44-68.5,39.89-17.83,10.56-39.54-1.53-37.3-22.1.53-4.83-.24-9.79.24-14.62.62-6.24,4.47-10.12,10.79-10.06,6.25.05,9.88,3.54,10.43,10.19,1.53,18.45,1.68,18.51,17.67,9.39,15.46-8.82,30.87-17.78,46.24-26.76,9.57-5.6,9.52-8-.27-13.73-17.1-10.01-34.24-19.98-51.43-29.85-8.99-5.16-11.72-3.63-12.18,6.53-.07,1.71-.09,3.45-.07,5.16.07,7.11-4.18,11.12-10.54,11.12s-10.59-4.05-10.77-11.03c-.07-3.15,0-6.31,0-9.46v.04Z"></path>
    <path class="cls-1"
        d="m2.43,126.25C.37,46.8,68.56-1.81,131.02,1.13c25.43,1.2,47.91,10.92,68.72,24.94,6.22,4.19,7.46,10.63,3.99,16.66-3.88,6.76-10.12,6.31-16.44,2.52-14.79-8.86-29.77-17.03-47.24-20C86.37,16.13,31.46,56.71,25.31,110.66c-1.09,9.64-1.13,19.42-1.44,29.15-.22,7.07-3.01,11.69-10.65,11.7-7.51,0-10.79-4.3-10.77-11.5v-13.76h-.02Z"></path>
</svg>