<svg width="2311" height="555" viewBox="0 0 2311 555" fill="none" xmlns="http://www.w3.org/2000/svg">
<path fill-rule="evenodd" clip-rule="evenodd" d="M882.39 352.56C889.95 353.01 890.7 360.64 891.05 371.28C890.59 385.3 885.02 389.74 877.1 389.61C865.29 389.43 853.43 389.43 841.63 389.61C833.72 389.74 828.15 385.3 827.68 371.28C828.03 360.64 829.89 352.73 836.34 352.56C851.79 352.15 866.96 351.65 882.38 352.56M850.75 251.69L910.75 252.09C910.75 252.09 931.19 250.25 931.58 270.34C931.93 288.45 932.13 368.81 931.72 388.89C931.42 403.38 933.41 422.69 910.53 422.49C884.22 422.26 816.9 422.46 816.9 422.46C816.9 422.46 793.81 425.95 793.33 404.81C792.85 383.67 793 340.38 793 340.38C793 340.38 790.58 316.7 809.8 316.69C829.02 316.68 894.28 316.33 894.28 316.33L893.83 298.01C893.83 298.01 895.04 288.08 880.28 288.11C865.52 288.15 850.75 288.12 850.75 288.12V251.68V251.69Z" fill="#231F20"/>
<path d="M1627.73 136.98H11.81V542.65H1627.73V538.55C1621.57 537.36 1616.06 534.33 1611.79 530.07C1606.2 524.48 1602.74 516.76 1602.74 508.23C1602.74 499.7 1606.2 491.98 1611.79 486.39C1616.06 482.12 1621.57 479.1 1627.73 477.9V472.1C1621.57 470.91 1616.06 467.88 1611.79 463.62C1606.2 458.03 1602.74 450.31 1602.74 441.78C1602.74 433.25 1606.2 425.53 1611.79 419.94C1616.06 415.67 1621.57 412.65 1627.73 411.46V403.55C1621.48 402.39 1615.9 399.34 1611.58 395.03C1605.99 389.44 1602.53 381.72 1602.53 373.19C1602.53 364.66 1605.99 356.94 1611.58 351.35C1615.89 347.03 1621.48 343.99 1627.73 342.83V335.09C1621.57 333.9 1616.06 330.87 1611.79 326.61C1606.2 321.02 1602.74 313.3 1602.74 304.77C1602.74 296.24 1606.2 288.52 1611.79 282.93C1616.06 278.66 1621.57 275.64 1627.73 274.45V267.01C1621.3 265.91 1615.56 262.82 1611.14 258.41C1605.55 252.82 1602.09 245.1 1602.09 236.57C1602.09 228.04 1605.55 220.32 1611.14 214.73C1615.56 210.31 1621.31 207.23 1627.73 206.13V201.9C1621.57 200.71 1616.06 197.68 1611.79 193.42C1606.2 187.83 1602.74 180.11 1602.74 171.58C1602.74 163.05 1606.2 155.33 1611.79 149.74C1616.06 145.47 1621.57 142.45 1627.73 141.26V137.04V136.98ZM5.91 125.17H1639.54V152.46H1633.63C1628.36 152.46 1623.59 154.59 1620.14 158.05C1616.69 161.5 1614.55 166.27 1614.55 171.54C1614.55 176.81 1616.68 181.58 1620.14 185.03C1623.59 188.48 1628.36 190.62 1633.63 190.62H1639.54V217.58L1633.52 217.45H1633.19L1632.98 217.44V217.46C1627.71 217.46 1622.94 219.59 1619.49 223.05C1616.04 226.5 1613.9 231.27 1613.9 236.54C1613.9 241.81 1616.04 246.58 1619.49 250.03C1622.94 253.48 1627.71 255.62 1632.98 255.62V255.64H1633.19H1633.52L1639.54 255.52V285.69H1633.63C1628.36 285.69 1623.59 287.83 1620.14 291.28C1616.69 294.73 1614.55 299.5 1614.55 304.77C1614.55 310.04 1616.68 314.81 1620.14 318.26C1623.59 321.71 1628.36 323.85 1633.63 323.85H1639.54V354.13H1633.42C1628.15 354.13 1623.38 356.26 1619.93 359.71C1616.48 363.16 1614.35 367.93 1614.35 373.2C1614.35 378.47 1616.48 383.24 1619.94 386.69C1623.39 390.14 1628.16 392.28 1633.43 392.28V392.3H1633.44H1633.55L1639.55 392.2V422.73H1633.64C1628.37 422.73 1623.6 424.87 1620.15 428.32C1616.7 431.77 1614.56 436.54 1614.56 441.81C1614.56 447.08 1616.7 451.85 1620.15 455.3C1623.6 458.75 1628.37 460.89 1633.64 460.89H1639.55V489.19H1633.64C1628.37 489.19 1623.6 491.33 1620.15 494.78C1616.7 498.23 1614.56 503 1614.56 508.27C1614.56 513.54 1616.69 518.31 1620.15 521.76C1623.6 525.21 1628.37 527.35 1633.64 527.35H1639.55V554.51H0V125.17H5.91Z" fill="#231F20"/>
<path d="M979.672 252.111C962.122 251.901 958.772 261.291 958.562 275.961C958.062 311.701 958.792 376.271 958.792 422.411L996.372 422.371V304.641C996.372 288.701 1002.08 288.081 1010.35 288.211C1012.14 288.241 1015.16 288.251 1018.51 288.261C1022.57 288.661 1024.15 290.311 1025.52 296.261H1063.87C1063.87 266.121 1064.27 302.901 1063.9 275.971C1063.69 261.301 1060.34 251.911 1042.79 252.121C1022.13 252.371 1000.67 252.371 979.682 252.121" fill="#231F20"/>
<path d="M369.239 422.43C369.179 373.82 368.629 324.84 369.309 276.22C369.519 261.55 372.849 252.02 390.399 252.23C415.349 252.17 440.469 252.53 465.409 252.23C482.479 252.03 486.119 260.9 486.499 274.89C486.879 260.9 490.519 252.03 507.589 252.23C532.039 252.52 556.659 252.17 581.119 252.23C598.669 252.02 601.999 261.55 602.209 276.22C602.889 324.85 602.209 373.73 602.209 422.41L565.089 422.44C565.089 383.97 564.599 344.17 564.599 304.83C564.599 288.89 558.889 288.27 550.619 288.4C547.159 288.45 519.719 288.45 513.639 288.44C508.179 289.14 504.699 292.25 504.699 304.69C504.699 343.92 504.809 383.14 504.659 422.41L466.859 422.44C466.859 383.19 466.859 343.94 466.859 304.69C466.859 292.25 463.379 289.14 457.919 288.44C451.839 288.45 424.349 288.46 420.889 288.4C412.619 288.27 406.909 288.88 406.909 304.83C406.909 344.02 406.949 383.22 406.959 422.41L369.229 422.44L369.239 422.43Z" fill="#231F20"/>
<path d="M165.888 386.57V422.9C148.308 422.79 124.348 422.44 110.198 422.61C92.6483 422.82 89.2883 413.43 89.0883 398.76C88.8683 383.36 88.9083 334.65 88.9883 290.1H66.7383V252.44H89.0583C89.0883 234.91 89.1183 220.51 89.1183 212.71L126.698 211.26V252.43H160.418V290.09H126.698V370.15C126.698 386.09 132.408 386.71 140.678 386.58C146.588 386.49 165.898 386.57 165.898 386.57" fill="#231F20"/>
<path d="M652.781 252.169C635.231 251.959 631.871 261.349 631.671 276.019C631.501 288.249 631.391 307.189 631.671 326.979C631.881 341.649 635.231 351.039 652.781 350.829C652.781 350.829 697.151 351.299 719.191 352.039C721.441 352.119 727.351 351.629 727.491 359.289C727.631 367.299 727.981 376.709 727.261 384.589C726.781 389.849 718.271 389.169 713.911 389.099C703.871 388.939 693.291 388.939 683.251 389.099C676.761 389.199 670.741 388.979 670.041 380.989H631.691C631.691 411.129 631.291 374.349 631.661 401.279C631.871 414.009 635.221 423.449 652.771 423.239C682.441 422.889 714.701 422.889 744.371 423.239C761.921 423.449 765.281 414.059 765.481 399.389C765.671 385.989 765.781 362.549 765.481 341.129C765.271 326.459 761.921 317.069 744.371 317.279C722.291 317.539 700.051 317.099 677.961 316.899C672.941 316.179 669.651 313.289 669.301 302.659C669.761 288.629 675.331 288.069 683.241 288.199C693.281 288.359 703.861 288.359 713.901 288.199C720.391 288.099 727.151 288.449 727.111 296.309H765.451C765.451 266.169 765.851 302.949 765.471 276.019C765.261 261.349 761.911 251.959 744.361 252.169C714.681 252.519 682.431 252.519 652.761 252.169" fill="#231F20"/>
<path d="M1086.96 423.61C1086.96 379.25 1087.15 233.02 1087.15 212.46L1124.73 211.75V303.7C1141.62 287.89 1177.92 253.08 1177.92 253.08L1228.16 252.89L1228.44 253.25C1228.44 253.25 1168.24 316.19 1163.56 319.79C1157.01 324.83 1154.07 330.31 1162.84 341.35L1228.21 423.61H1180.06C1159.97 398.42 1138.07 370.93 1124.74 354.01V423.6H1086.97L1086.96 423.61Z" fill="#231F20"/>
<path d="M1443.09 423.95H1412.54V213.06L1450.36 211.77V253.28C1479.64 253.15 1504.84 253.6 1533.97 253.25C1551.52 253.04 1554.87 262.43 1555.08 277.1C1555.46 304.04 1555.06 393.69 1555.06 423.89L1517.48 423.97V305.7C1517.48 289.76 1511.77 289.14 1503.5 289.27C1489.06 289.5 1478.92 289.5 1464.48 289.27C1456.21 289.14 1450.5 289.75 1450.5 305.7V423.97L1443.1 423.95H1443.09Z" fill="#231F20"/>
<path d="M1334.68 289.52C1340.79 289.42 1345.5 289.73 1347.55 296.34V381.41C1345.51 388.02 1340.79 388.33 1334.68 388.23C1316.18 387.93 1313.85 387.65 1295.6 387.94C1287.33 388.07 1281.62 387.25 1281.62 371.3V306.58C1281.62 290.64 1287.33 290.23 1295.6 290.36C1314.76 290.66 1315.78 289.82 1334.68 289.52ZM1313.47 493.71C1328.87 493.58 1343.82 493.41 1364.04 493.65C1381.59 493.86 1384.94 484.47 1385.15 469.8C1386.1 401.88 1387.21 345.26 1386.26 277.34C1386.05 262.67 1382.7 253.28 1365.15 253.49C1326.51 253.95 1303.6 254.8 1265.13 254.34C1247.58 254.13 1244.22 263.52 1244.02 278.19C1243.69 301.48 1243.95 316.11 1244.02 339.16C1243.94 362.21 1243.69 376.84 1244.02 400.13C1244.23 414.8 1247.58 424.19 1265.13 423.98C1298.12 423.58 1314.31 424.42 1347.55 424.25V441.2C1347.55 457.14 1341.84 457.76 1333.57 457.63C1323.23 457.47 1318.9 457.5 1313.47 457.56V493.72V493.71Z" fill="#231F20"/>
<path d="M300.47 302.331C300.47 318.761 300.48 326.401 300.49 332.631C300.49 335.801 300.47 340.821 300.47 357.241H300.52C300.52 360.811 300.52 364.971 300.52 369.931C300.52 385.871 294.81 386.491 286.54 386.361C284.83 386.331 277.23 386.321 269.26 386.321C261.29 386.321 253.69 386.341 251.98 386.361C243.71 386.491 238 385.881 238 369.931C238 364.961 238 360.801 238 357.241H238.05C238.05 340.811 238.04 335.801 238.03 332.631C238.04 326.401 238.05 318.751 238.05 302.331C238.59 288.621 244.13 288.071 251.98 288.191C253.69 288.221 261.29 288.231 269.26 288.231C277.23 288.231 284.83 288.211 286.54 288.191C294.39 288.061 299.94 288.611 300.48 302.331M200.22 330.951C200.07 353.501 199.89 362.051 200.4 398.541C200.61 413.211 203.94 422.741 221.49 422.531C237.38 422.571 253.33 422.441 269.26 422.411C285.19 422.431 301.15 422.571 317.04 422.531C334.59 422.741 337.92 413.211 338.13 398.541C338.64 362.041 338.46 353.501 338.31 330.951C338.46 312.611 338.64 312.501 338.13 276.011C337.92 261.341 334.59 251.811 317.04 252.021C301.15 251.981 285.2 252.121 269.26 252.141C253.33 252.121 237.37 251.991 221.49 252.021C203.94 251.811 200.61 261.341 200.4 276.011C199.89 312.511 200.07 312.611 200.22 330.951Z" fill="#231F20"/>
<path d="M1628.57 125.85L2204.74 1.22L2210.36 0L2211.71 5.6L2309.46 411.02L2310.88 416.89L2304.99 418.17L1717.9 545.74L1712.12 547C1710.23 538.1 1708.34 529.21 1706.44 520.31C1719.95 518.28 1729.51 512.01 1727.29 496.52C1723.04 480.94 1711.22 480.35 1698.54 483.17C1696.57 473.89 1694.6 464.61 1692.62 455.33C1705.43 452.9 1716.36 446.05 1713.46 431.52C1710.22 416.28 1697.39 415.35 1684.72 418.17C1682.59 408.19 1680.47 398.2 1678.35 388.22C1685.7 386.84 1692.09 385.15 1696.34 378.83C1699 374.74 1700.09 369.63 1698.99 364.46C1697.14 354.8 1689.03 349.75 1681.82 349.38C1678.14 349.19 1674.53 350.14 1670.43 350.99L1669.21 345.25L1664.11 321.26C1676.95 318.89 1687.85 311.97 1684.96 297.47C1681.72 282.22 1668.88 281.31 1656.21 284.12C1654.13 274.33 1652.05 264.55 1649.97 254.77C1662.24 252.01 1673 246.48 1670.13 230.89C1666.93 215.49 1654.25 214.85 1642.01 217.3C1640.14 208.52 1638.28 199.74 1636.41 190.96C1651.36 188.2 1660.45 179.34 1655.97 163.45C1652.38 150.73 1639.87 151.3 1628.52 153.82L1622.83 127.08L1628.58 125.84L1628.57 125.85Z" fill="#CF2424"/>
<path fill-rule="evenodd" clip-rule="evenodd" d="M1753.35 357.85C1767.85 354.54 1782.28 363.6 1785.6 378.1C1788.91 392.6 1779.85 407.03 1765.35 410.35C1750.85 413.66 1736.41 404.6 1733.1 390.1C1729.79 375.6 1738.85 361.17 1753.35 357.85Z" fill="white"/>
<path d="M1974.44 352.221C1963.55 304.851 1952.1 257.221 1941.93 209.671C1938.86 195.321 1939.99 185.291 1957.15 181.581C1981.46 175.971 2006.02 170.711 2030.28 164.861C2046.87 160.861 2052.4 168.701 2055.88 182.25C2053.13 168.53 2054.71 159.071 2071.39 155.461C2095.29 150.301 2119.22 144.471 2143.07 139.071C2160.13 134.961 2165.5 143.5 2168.97 157.76C2180.47 205.02 2190.7 252.82 2201.55 300.27L2165.37 308.571C2156.8 271.061 2147.46 232.38 2138.69 194.03C2135.14 178.49 2129.44 179.161 2121.4 181.131C2118.04 181.951 2091.29 188.061 2085.35 189.411C2080.19 191.311 2077.49 195.111 2080.26 207.251C2089 245.491 2097.85 283.701 2106.45 322.02L2069.61 330.471C2060.87 292.211 2052.12 253.951 2043.37 215.691C2040.6 203.561 2036.51 201.31 2031.04 201.84C2025.11 203.21 1998.31 209.34 1994.93 210.061C1986.84 211.781 1981.41 213.651 1984.97 229.191C1993.7 267.401 2002.47 305.6 2011.22 343.8L1974.45 352.231L1974.44 352.221Z" fill="white"/>
<path fill-rule="evenodd" clip-rule="evenodd" d="M1888.5 300.42C1895.97 299.16 1898.41 306.43 1901.14 316.72C1903.83 330.49 1899.4 336.06 1891.65 337.71C1880.1 340.18 1868.54 342.84 1857.08 345.66C1849.4 347.56 1842.97 344.48 1839.38 330.92C1837.34 320.47 1837.38 312.35 1843.63 310.74C1858.6 306.88 1873.26 302.99 1888.5 300.42ZM1835.07 209.2L1893.63 196.15C1893.63 196.15 1913.13 189.78 1918.02 209.27C1922.42 226.84 1940.62 305.11 1944.72 324.78C1947.68 338.97 1953.93 357.34 1931.6 362.27C1901.71 368.87 1850.08 380.97 1841.61 383.12C1833.69 385.13 1817.57 387.65 1813.42 371.3C1808.22 350.8 1798.66 308.58 1798.66 308.58C1798.66 308.58 1791 286.05 1809.73 281.73C1828.46 277.41 1891.98 262.45 1891.98 262.45L1887.44 244.7C1887.44 244.7 1886.39 234.75 1872.01 238.09C1857.63 241.43 1843.24 244.72 1843.24 244.72L1835.08 209.21L1835.07 209.2Z" fill="white"/>
</svg>
